<svg xmlns="http://www.w3.org/2000/svg" viewBox="0 0 489.994 489.994" xml:space="preserve"><path style="fill:#cbbba0" d="M244.997 229.686c-76.111 0-137.811 61.7-137.811 137.811v45.937h275.621v-45.937c0-76.112-61.7-137.811-137.81-137.811"/><path style="fill:#ca9e67" d="M76.561 390.465h45.937v22.969H76.561zm290.896 0h45.937v22.969h-45.937z"/><path style="fill:#cbbba0" d="M160.779 405.777V237.342l38.281 22.968 45.937 7.656h30.624l53.593-30.624v160.779l-15.312 15.312H168.435z"/><path style="fill:#ca9e67" d="M222.028 267.966v22.969l22.969 38.28 22.968-38.28v-22.969zM199.06 413.433c0-25.37 20.567-45.937 45.937-45.937s45.937 20.567 45.937 45.937M176.091 283.279l22.969-7.657V260.31l-22.969-15.313zm137.811 0-22.968-7.657V260.31l22.968-15.313z"/><path style="fill:#fff" d="M199.06 352.34h15.312v15H199.06zm76.562 0h15.311v15h-15.311z"/><path style="fill:#1d1d1b" d="M237.497 283.278h15v53.594h-15zm22.968 0h15v15.313h-15zm-45.937 0h15v15.313h-15z"/><path style="fill:#1d1d1b" d="M427.652 405.933c-3.35-13.186-15.319-22.969-29.532-22.969h-13.773l-47.632-20.414v-87.635c24.694 24.371 38.593 57.321 38.593 92.58v7.656h15v-7.656c0-44.098-19.487-84.958-53.593-112.707v-31.461l-23.648 15.765c-18.668-9.906-39.382-15.603-60.57-16.695v-23.336c0-12.751 10.374-23.125 23.125-23.125 21.022 0 38.124-17.103 38.124-38.125s-17.102-38.124-38.124-38.124h-15.313c-4.308 0-7.812-3.505-7.812-7.813s3.505-7.813 7.812-7.813v-15c-12.579 0-22.812 10.233-22.812 22.813s10.233 22.813 22.812 22.813h15.313c12.751 0 23.124 10.373 23.124 23.124s-10.373 23.125-23.124 23.125c-21.023 0-38.125 17.102-38.125 38.125v23.337c-21.189 1.093-41.901 6.79-60.57 16.696l-23.648-15.765v31.462c-34.105 27.749-53.593 68.611-53.593 112.706v7.656h15v-7.656c0-35.257 13.899-68.209 38.593-92.58v87.634l-47.632 20.414H91.874c-14.213 0-26.182 9.783-29.532 22.969H0v15h489.994v-15zm-16.014 0H369.29c2.644-4.747 7.709-7.969 13.517-7.969h15.313c5.808.001 10.873 3.223 13.518 7.969m-197.11-165.136v11.857h15V238.12c5.119-.61 10.282-.935 15.468-.935s10.35.325 15.469.935v14.534h15v-11.857a130 130 0 0 1 23.174 7.914l-17.632 11.755h-72.02l-17.632-11.755a130 130 0 0 1 23.173-7.914M91.874 397.965h15.312c5.808 0 10.874 3.222 13.518 7.969H78.356c2.644-4.747 7.709-7.969 13.518-7.969m44.844 7.968c-1.584-6.233-5.096-11.702-9.859-15.74l26.42-11.323v27.063zm31.561 0V251.355l26.665 17.777-8.843 8.842 10.606 10.607 13.116-13.115h70.348l13.115 13.115 10.607-10.607-8.843-8.843 26.664-17.777v154.578zm168.435-27.063 26.421 11.323c-4.763 4.038-8.276 9.507-9.859 15.74h-16.561z"/><path style="fill:#1d1d1b" d="M229.685 397.965h7.812v10.812h15v-10.812h7.812v-15h-30.624z"/></svg>