<svg xmlns="http://www.w3.org/2000/svg" viewBox="0 0 512 512" xml:space="preserve"><g stroke-width="0"/><g stroke-linecap="round" stroke-linejoin="round"/><path style="fill:#8c6d50" d="M381.499 100.031a16.6 16.6 0 0 1-11.788-4.885l-63.839-63.827c-6.513-6.507-6.513-17.065 0-23.577s17.064-6.513 23.577 0l63.839 63.827c6.513 6.507 6.513 17.065 0 23.577a16.62 16.62 0 0 1-11.789 4.885"/><path style="fill:#765b43" d="M492.49 211.023a16.6 16.6 0 0 1-11.788-4.885l-63.839-63.833c-6.513-6.507-6.513-17.065 0-23.577s17.064-6.513 23.577 0l63.839 63.833c6.513 6.507 6.513 17.065 0 23.577a16.62 16.62 0 0 1-11.789 4.885"/><path style="fill:#e8c870" d="M201.653 375.047c-5.503-7.403-15.934-8.944-23.327-3.478l-79.112 64.809c-6.513 6.513-6.513 17.07 0 23.577l47.165 47.159A16.63 16.63 0 0 0 158.168 512a16.63 16.63 0 0 0 11.788-4.885l23.577-23.577c28.962-28.967 32.457-75.606 8.12-108.491"/><path style="fill:#e2e7ec" d="M456.05 107.895c0-13.362-5.2-25.921-14.654-35.371-9.444-9.449-22.003-14.649-35.365-14.649s-25.921 5.2-35.365 14.649l-29.895 29.888c-6.513 6.508-6.514 17.063 0 23.577l47.165 47.159a16.6 16.6 0 0 0 11.789 4.884c4.266 0 8.531-1.628 11.788-4.885l29.884-29.884c9.454-9.446 14.654-22.005 14.653-35.368"/><path style="fill:#b7c5d2" d="m441.398 72.525-77.045 77.045 23.583 23.58a16.6 16.6 0 0 0 11.789 4.884c4.266 0 8.531-1.628 11.788-4.885l29.884-29.884c9.456-9.448 14.655-22.008 14.655-35.371-.001-13.361-5.201-25.921-14.654-35.369"/><path style="fill:#f5dd9a" d="M140.453 333.69c5.471-7.403 3.919-17.845-3.484-23.321-32.902-24.343-79.514-20.842-108.485 8.114L4.895 342.064a16.67 16.67 0 0 0 0 23.578l47.165 47.159a16.62 16.62 0 0 0 11.79 4.885 16.62 16.62 0 0 0 11.787-4.885zm137.29-165.444c6.514-6.507 6.513-17.07 0-23.576L152.607 19.528C140.004 6.936 123.255.001 105.442 0 87.629.001 70.88 6.937 58.288 19.529 45.685 32.126 38.749 48.874 38.749 66.693c.001 17.814 6.936 34.561 19.539 47.154l131.791 131.791a16.6 16.6 0 0 0 11.788 4.884 16.6 16.6 0 0 0 11.789-4.884z"/><path style="fill:#e8c870" d="M492.49 359.41 367.344 234.269c-6.513-6.513-17.064-6.514-23.577 0l-77.385 64.093c-6.514 6.514-6.513 17.07-.001 23.577l131.792 131.785c12.591 12.597 29.342 19.533 47.153 19.532 17.814.001 34.563-6.936 47.165-19.533 25.997-26.002 25.997-68.309-.001-94.313"/><path style="fill:#bf6745" d="M111.957 465.793a16.63 16.63 0 0 1-11.788-4.885l-47.154-47.154c-6.079-6.073-6.546-15.777-1.064-22.404l223.33-270.496a16 16 0 0 1 1.064-1.173c32.5-32.499 85.375-32.494 117.895-.006 32.5 32.511 32.5 85.402 0 117.901q-.554.564-1.173 1.069l-270.496 223.33a16.6 16.6 0 0 1-10.614 3.818"/><path style="fill:#b1532f" d="M394.244 119.679 76.591 437.332l23.576 23.576a16.63 16.63 0 0 0 11.79 4.885c3.755 0 7.522-1.258 10.616-3.815l270.495-223.332q.62-.505 1.173-1.069c32.498-32.498 32.5-85.386.003-117.898"/><path style="fill:#6e6057" d="M228.199 285.724c-6.509-6.509-6.513-17.067 0-23.579l71.721-71.721c6.513-6.513 17.07-6.509 23.579 0s6.513 17.067 0 23.579l-71.721 71.722c-6.512 6.512-17.07 6.508-23.579-.001"/><path style="fill:#615349" d="m251.778 285.724 71.721-71.722c6.513-6.513 6.509-17.07 0-23.579l-95.301 95.301c6.51 6.509 17.068 6.513 23.58 0"/><path transform="rotate(-134.999 409.96 371.203)" style="fill:#da9a2b" d="M359.939 304.508h100.039v133.385H359.939z"/><path transform="rotate(-134.999 142.718 103.962)" style="fill:#e3b236" d="M92.698 37.269h100.039v133.385H92.698z"/></svg>